<svg width="1280" height="720" viewBox="0 0 1280 720" xmlns="http://www.w3.org/2000/svg">
  <defs>
    <linearGradient id="bg" x1="0" y1="0" x2="1" y2="1">
      <stop offset="0%" stop-color="#0d0b1e"/>
      <stop offset="55%" stop-color="#150f2e"/>
      <stop offset="100%" stop-color="#1d1240"/>
    </linearGradient>
    <linearGradient id="titleGrad" x1="0" y1="0" x2="1" y2="0">
      <stop offset="0%" stop-color="#ffffff"/>
      <stop offset="100%" stop-color="#d8c7ff"/>
    </linearGradient>
    <radialGradient id="glow" cx="0.5" cy="0.4" r="0.55">
      <stop offset="0%" stop-color="#fc72ff" stop-opacity="0.12"/>
      <stop offset="100%" stop-color="#fc72ff" stop-opacity="0"/>
    </radialGradient>
  </defs>

  <rect width="1280" height="720" fill="url(#bg)"/>
  <rect width="1280" height="720" fill="url(#glow)"/>
  <g stroke="#ffffff" stroke-opacity="0.04" stroke-width="1">
    <line x1="0" y1="180" x2="1280" y2="180"/>
    <line x1="0" y1="360" x2="1280" y2="360"/>
    <line x1="0" y1="540" x2="1280" y2="540"/>
    <line x1="320" y1="0" x2="320" y2="720"/>
    <line x1="640" y1="0" x2="640" y2="720"/>
    <line x1="960" y1="0" x2="960" y2="720"/>
  </g>

  <text x="585" y="250" font-family="Helvetica Neue, Arial, sans-serif" font-size="72" font-weight="800" fill="url(#titleGrad)" text-anchor="middle" letter-spacing="-1">Committed liquidity, insured</text>

  <!-- shield next to "insured" -->
  <g transform="translate(1130,226)">
    <path d="M0,-26 C10,-19 22,-16 30,-16 C30,6 20,25 0,33 C-20,25 -30,6 -30,-16 C-22,-16 -10,-19 0,-26 Z"
          fill="#150f2e" stroke="#fc72ff" stroke-width="3"/>
    <path d="M-11,1 L-3,10 L13,-8" fill="none" stroke="#fc72ff" stroke-width="3.5" stroke-linecap="round" stroke-linejoin="round"/>
  </g>

  <g font-family="Helvetica Neue, Arial, sans-serif" font-size="24" fill="#b8b2d4" text-anchor="middle">
    <text x="640" y="330">Tested end to end: 100% line coverage, Sepolia fork suite, live deployment</text>
  </g>

  <text x="640" y="416" font-family="Helvetica Neue, Arial, sans-serif" font-size="18" font-weight="600" fill="#fc72ff" text-anchor="middle" letter-spacing="3">WHAT'S NEXT</text>
  <g font-family="Helvetica Neue, Arial, sans-serif" font-size="23" fill="#e8e6f2" text-anchor="middle">
    <text x="640" y="460">Pro-rata collective bounties · ERC1155 position tokens</text>
    <text x="640" y="496">Real LP attribution via hookData</text>
  </g>

  <a href="https://github.com/diego-G/samana-hook" target="_blank">
    <rect x="430" y="546" width="420" height="46" rx="9" fill="#7dd3fc" fill-opacity="0.06" stroke="#7dd3fc" stroke-opacity="0.45" stroke-width="1.5"/>
    <text x="640" y="576" font-family="Menlo, Courier New, monospace" font-size="18" fill="#7dd3fc" fill-opacity="0.9" text-anchor="middle">github.com/diego-G/samana-hook</text>
  </a>

  <text x="84" y="688" font-family="Helvetica Neue, Arial, sans-serif" font-size="15" fill="#5e5880">SamanaHook · Uniswap v4</text>
  <text x="1196" y="688" font-family="Helvetica Neue, Arial, sans-serif" font-size="15" fill="#5e5880" text-anchor="end">7 / 7</text>
</svg>
